<?xml version="1.0" encoding="utf-8"?>
<!-- Generator: Adobe Illustrator 17.0.0, SVG Export Plug-In . SVG Version: 6.00 Build 0)  -->
<!DOCTYPE svg PUBLIC "-//W3C//DTD SVG 1.1//EN" "http://www.w3.org/Graphics/SVG/1.1/DTD/svg11.dtd">
<svg version="1.1" xmlns="http://www.w3.org/2000/svg" xmlns:xlink="http://www.w3.org/1999/xlink" x="0px" y="0px" width="1400px"
	 height="980px" viewBox="0 0 1400 980" enable-background="new 0 0 1400 980" xml:space="preserve">
<g id="Layer_2">
	<rect fill="#C6E9FC" width="1400" height="980"/>
</g>
<g id="Layer_1">
	<linearGradient id="SVGID_1_" gradientUnits="userSpaceOnUse" x1="261.5547" y1="483.3364" x2="133.3648" y2="269.9926">
		<stop  offset="0" style="stop-color:#FFFFFF;stop-opacity:0"/>
		<stop  offset="0.1291" style="stop-color:#CFDBE1;stop-opacity:0.0387"/>
		<stop  offset="0.2999" style="stop-color:#97B1BD;stop-opacity:0.09"/>
		<stop  offset="0.4658" style="stop-color:#678D9F;stop-opacity:0.1397"/>
		<stop  offset="0.6227" style="stop-color:#437288;stop-opacity:0.1868"/>
		<stop  offset="0.7682" style="stop-color:#285E78;stop-opacity:0.2305"/>
		<stop  offset="0.8983" style="stop-color:#19526E;stop-opacity:0.2695"/>
		<stop  offset="1" style="stop-color:#134E6A;stop-opacity:0.3"/>
	</linearGradient>
	<polygon opacity="0.2" fill="url(#SVGID_1_)" points="155.94,545.504 69.619,432.117 117.266,360.985 248.93,200.554 
		379.965,412.189 	"/>
	<linearGradient id="SVGID_2_" gradientUnits="userSpaceOnUse" x1="332.3784" y1="890.8615" x2="278.4135" y2="550.1405">
		<stop  offset="0" style="stop-color:#FFFFFF;stop-opacity:0"/>
		<stop  offset="0.1291" style="stop-color:#CFDBE1;stop-opacity:0.0387"/>
		<stop  offset="0.2999" style="stop-color:#97B1BD;stop-opacity:0.09"/>
		<stop  offset="0.4658" style="stop-color:#678D9F;stop-opacity:0.1397"/>
		<stop  offset="0.6227" style="stop-color:#437288;stop-opacity:0.1868"/>
		<stop  offset="0.7682" style="stop-color:#285E78;stop-opacity:0.2305"/>
		<stop  offset="0.8983" style="stop-color:#19526E;stop-opacity:0.2695"/>
		<stop  offset="1" style="stop-color:#134E6A;stop-opacity:0.3"/>
	</linearGradient>
	<polygon opacity="0.2" fill="url(#SVGID_2_)" points="165.561,825.878 79.24,712.491 198.377,562.817 312.62,755.784 
		420.727,644.48 551.763,856.114 	"/>
	<polygon fill="#EBECEC" points="88.607,199.998 79.7,408.194 256.445,405.411 248.93,199.998 	"/>
	<polygon fill="#FFFFFF" points="88.607,200.554 115.884,213.914 115.884,236.181 88.607,236.181 	"/>
	<polygon fill="#EBECEC" points="80.257,236.181 115.884,213.914 115.884,236.181 	"/>
	<polygon fill="#FFFFFF" points="248.93,200.554 221.096,213.914 221.096,236.181 248.93,236.181 	"/>
	<polygon fill="#EBECEC" points="257.28,236.181 221.096,213.914 221.096,236.181 	"/>
	<g>
		<g>
			<path fill="#E74B42" d="M98.831,697.394c30.167-39.543,60.333-79.086,90.5-118.628c3.735-4.896,7.47-9.791,11.204-14.687
				c-1.439,0-2.878,0-4.317,0c24.772,41.187,49.544,82.374,74.315,123.56c13.253,22.035,26.506,44.07,39.759,66.105
				c0.822,1.367,2.787,1.672,3.926,0.506c29.835-30.51,59.67-61.02,89.504-91.53c2.255-2.306-1.278-5.844-3.536-3.536
				c-29.835,30.51-59.67,61.02-89.504,91.53c1.309,0.169,2.618,0.337,3.926,0.506c-24.772-41.187-49.543-82.374-74.315-123.56
				c-13.253-22.035-26.506-44.07-39.759-66.105c-1.054-1.753-3.207-1.455-4.317,0c-30.167,39.543-60.333,79.086-90.5,118.628
				c-3.735,4.896-7.47,9.791-11.204,14.687C92.557,697.435,96.903,699.921,98.831,697.394L98.831,697.394z"/>
		</g>
	</g>
	<path fill="#B0DAB9" d="M1231.198,808.048c-5.37,5.37-14.076,5.37-19.445,0l-87.719-87.719c-5.37-5.37-5.37-14.076,0-19.445l0,0
		c5.37-5.37,14.076-5.37,19.445,0l87.719,87.719C1236.568,793.972,1236.568,802.678,1231.198,808.048L1231.198,808.048z"/>
	<path fill="#E74B42" d="M1189.742,786.037l-87.719-87.719c-5.37-5.37-5.37-14.076,0-19.445l0,0c5.37-5.37,14.076-5.37,19.445,0
		l87.719,87.719"/>
	<linearGradient id="SVGID_3_" gradientUnits="userSpaceOnUse" x1="1000.4542" y1="420.5693" x2="844.8204" y2="161.5512">
		<stop  offset="0" style="stop-color:#FFFFFF;stop-opacity:0"/>
		<stop  offset="0.1291" style="stop-color:#CFDBE1;stop-opacity:0.1291"/>
		<stop  offset="0.2999" style="stop-color:#97B1BD;stop-opacity:0.2999"/>
		<stop  offset="0.4658" style="stop-color:#678D9F;stop-opacity:0.4658"/>
		<stop  offset="0.6227" style="stop-color:#437288;stop-opacity:0.6227"/>
		<stop  offset="0.7682" style="stop-color:#285E78;stop-opacity:0.7682"/>
		<stop  offset="0.8983" style="stop-color:#19526E;stop-opacity:0.8983"/>
		<stop  offset="1" style="stop-color:#134E6A"/>
	</linearGradient>
	<polygon opacity="0.2" fill="url(#SVGID_3_)" points="907.542,475.921 842.81,380.239 842.81,162.759 966.327,162.759 
		1000.295,198.271 1097.736,362.116 	"/>
	<linearGradient id="SVGID_4_" gradientUnits="userSpaceOnUse" x1="1259.9878" y1="506.726" x2="1185.4233" y2="382.6299">
		<stop  offset="0" style="stop-color:#FFFFFF;stop-opacity:0"/>
		<stop  offset="0.1291" style="stop-color:#CFDBE1;stop-opacity:0.1291"/>
		<stop  offset="0.2999" style="stop-color:#97B1BD;stop-opacity:0.2999"/>
		<stop  offset="0.4658" style="stop-color:#678D9F;stop-opacity:0.4658"/>
		<stop  offset="0.6227" style="stop-color:#437288;stop-opacity:0.6227"/>
		<stop  offset="0.7682" style="stop-color:#285E78;stop-opacity:0.7682"/>
		<stop  offset="0.8983" style="stop-color:#19526E;stop-opacity:0.8983"/>
		<stop  offset="1" style="stop-color:#134E6A"/>
	</linearGradient>
	<polygon opacity="0.2" fill="url(#SVGID_4_)" points="1189.425,548.763 1140.264,476.097 1187.911,404.966 1233.979,361.457 
		1259.867,337.9 1333.87,462.333 	"/>
	<linearGradient id="SVGID_5_" gradientUnits="userSpaceOnUse" x1="1230.5588" y1="881.2675" x2="1088.6641" y2="645.115">
		<stop  offset="0" style="stop-color:#FFFFFF;stop-opacity:0"/>
		<stop  offset="0.1291" style="stop-color:#CFDBE1;stop-opacity:0.0387"/>
		<stop  offset="0.2999" style="stop-color:#97B1BD;stop-opacity:0.09"/>
		<stop  offset="0.4658" style="stop-color:#678D9F;stop-opacity:0.1397"/>
		<stop  offset="0.6227" style="stop-color:#437288;stop-opacity:0.1868"/>
		<stop  offset="0.7682" style="stop-color:#285E78;stop-opacity:0.2305"/>
		<stop  offset="0.8983" style="stop-color:#19526E;stop-opacity:0.2695"/>
		<stop  offset="1" style="stop-color:#134E6A;stop-opacity:0.3"/>
	</linearGradient>
	<polygon opacity="0.2" fill="url(#SVGID_5_)" points="1172.849,887.569 1049.554,711.116 1097.202,639.985 1140.296,618.274 
		1288.432,846.494 	"/>
	<polygon fill="#EBECEC" points="999.626,379.451 842.141,379.451 842.141,161.972 965.658,161.972 999.626,197.483 	"/>
	<polygon fill="#C9CBCD" points="965.658,161.972 965.658,197.483 999.626,197.483 	"/>
	<rect x="869.932" y="222.084" fill="#B0DAB9" width="106.02" height="7.205"/>
	<rect x="869.932" y="258.11" fill="#B0DAB9" width="106.02" height="7.205"/>
	<rect x="869.932" y="294.136" fill="#B0DAB9" width="106.02" height="7.205"/>
	<rect x="869.932" y="330.162" fill="#B0DAB9" width="106.02" height="7.205"/>
	<path fill="#B53C35" d="M663.986,304.082c0,9.5-7.453,17.2-16.646,17.2H355.108c-9.193,0-16.646-7.701-16.646-17.2l0,0
		c0-9.5,7.453-17.2,16.646-17.2h292.232C656.533,286.881,663.986,294.582,663.986,304.082L663.986,304.082z"/>
	<g>
		<defs>
			<path id="SVGID_6_" d="M663.986,304.082c0,9.5-7.453,17.2-16.646,17.2H355.108c-9.193,0-16.646-7.701-16.646-17.2l0,0
				c0-9.5,7.453-17.2,16.646-17.2h292.232C656.533,286.881,663.986,294.582,663.986,304.082L663.986,304.082z"/>
		</defs>
		<clipPath id="SVGID_7_">
			<use xlink:href="#SVGID_6_"  overflow="visible"/>
		</clipPath>
		<path clip-path="url(#SVGID_7_)" fill="#E74B42" d="M663.986,295.481c0,9.5-7.453,17.2-16.646,17.2H355.108
			c-9.193,0-16.646-7.701-16.646-17.2l0,0c0-9.5,7.453-17.2,16.646-17.2h292.232C656.533,278.281,663.986,285.982,663.986,295.481
			L663.986,295.481z"/>
	</g>
	
		<ellipse fill="#FFFFFF" stroke="#D2D0D3" stroke-width="6" stroke-miterlimit="10" cx="602.587" cy="305.044" rx="28.436" ry="29.383"/>
	<path fill="#BD9D2E" d="M663.986,400.595c0,9.5-7.453,17.2-16.646,17.2H355.108c-9.193,0-16.646-7.701-16.646-17.2l0,0
		c0-9.5,7.453-17.2,16.646-17.2h292.232C656.533,383.395,663.986,391.096,663.986,400.595L663.986,400.595z"/>
	<g>
		<defs>
			<path id="SVGID_8_" d="M663.986,400.595c0,9.5-7.453,17.2-16.646,17.2H355.108c-9.193,0-16.646-7.701-16.646-17.2l0,0
				c0-9.5,7.453-17.2,16.646-17.2h292.232C656.533,383.395,663.986,391.096,663.986,400.595L663.986,400.595z"/>
		</defs>
		<clipPath id="SVGID_9_">
			<use xlink:href="#SVGID_8_"  overflow="visible"/>
		</clipPath>
		<path clip-path="url(#SVGID_9_)" fill="#E0B835" d="M663.986,391.995c0,9.5-7.453,17.2-16.646,17.2H355.108
			c-9.193,0-16.646-7.701-16.646-17.2l0,0c0-9.5,7.453-17.2,16.646-17.2h292.232C656.533,374.795,663.986,382.495,663.986,391.995
			L663.986,391.995z"/>
	</g>
	
		<ellipse fill="#FFFFFF" stroke="#D2D0D3" stroke-width="6" stroke-miterlimit="10" cx="419.479" cy="401.558" rx="28.436" ry="29.383"/>
	<path fill="#94B89D" d="M663.986,205.657c0,9.5-7.453,17.2-16.646,17.2H355.108c-9.193,0-16.646-7.701-16.646-17.2l0,0
		c0-9.5,7.453-17.2,16.646-17.2h292.232C656.533,188.457,663.986,196.157,663.986,205.657L663.986,205.657z"/>
	<g>
		<defs>
			<path id="SVGID_10_" d="M663.986,205.657c0,9.5-7.453,17.2-16.646,17.2H355.108c-9.193,0-16.646-7.701-16.646-17.2l0,0
				c0-9.5,7.453-17.2,16.646-17.2h292.232C656.533,188.457,663.986,196.157,663.986,205.657L663.986,205.657z"/>
		</defs>
		<clipPath id="SVGID_11_">
			<use xlink:href="#SVGID_10_"  overflow="visible"/>
		</clipPath>
		<path clip-path="url(#SVGID_11_)" fill="#B0DAB9" d="M663.986,197.057c0,9.5-7.453,17.2-16.646,17.2H355.108
			c-9.193,0-16.646-7.701-16.646-17.2l0,0c0-9.5,7.453-17.2,16.646-17.2h292.232C656.533,179.856,663.986,187.557,663.986,197.057
			L663.986,197.057z"/>
	</g>
	
		<ellipse fill="#FFFFFF" stroke="#D2D0D3" stroke-width="6" stroke-miterlimit="10" cx="505.484" cy="206.619" rx="28.436" ry="29.383"/>
	<linearGradient id="SVGID_12_" gradientUnits="userSpaceOnUse" x1="939.6378" y1="466.9547" x2="784.004" y2="207.9367">
		<stop  offset="0" style="stop-color:#FFFFFF;stop-opacity:0"/>
		<stop  offset="0.1291" style="stop-color:#CFDBE1;stop-opacity:0.1291"/>
		<stop  offset="0.2999" style="stop-color:#97B1BD;stop-opacity:0.2999"/>
		<stop  offset="0.4658" style="stop-color:#678D9F;stop-opacity:0.4658"/>
		<stop  offset="0.6227" style="stop-color:#437288;stop-opacity:0.6227"/>
		<stop  offset="0.7682" style="stop-color:#285E78;stop-opacity:0.7682"/>
		<stop  offset="0.8983" style="stop-color:#19526E;stop-opacity:0.8983"/>
		<stop  offset="1" style="stop-color:#134E6A"/>
	</linearGradient>
	<polygon opacity="0.2" fill="url(#SVGID_12_)" points="846.725,522.306 781.993,426.625 781.993,209.145 905.511,209.145 
		939.479,244.656 1036.92,408.502 	"/>
	<linearGradient id="SVGID_13_" gradientUnits="userSpaceOnUse" x1="879.8259" y1="846.8964" x2="688.5105" y2="528.4942">
		<stop  offset="0" style="stop-color:#FFFFFF;stop-opacity:0"/>
		<stop  offset="0.1291" style="stop-color:#CFDBE1;stop-opacity:0.1291"/>
		<stop  offset="0.2999" style="stop-color:#97B1BD;stop-opacity:0.2999"/>
		<stop  offset="0.4658" style="stop-color:#678D9F;stop-opacity:0.4658"/>
		<stop  offset="0.6227" style="stop-color:#437288;stop-opacity:0.6227"/>
		<stop  offset="0.7682" style="stop-color:#285E78;stop-opacity:0.7682"/>
		<stop  offset="0.8983" style="stop-color:#19526E;stop-opacity:0.8983"/>
		<stop  offset="1" style="stop-color:#134E6A"/>
	</linearGradient>
	<polygon opacity="0.2" fill="url(#SVGID_13_)" points="669.43,892.015 604.698,796.334 604.698,578.854 728.215,578.854 
		961.469,575.446 1058.91,739.292 	"/>
	<polygon fill="#FFFFFF" points="938.922,426.665 781.437,426.665 781.437,209.186 904.954,209.186 938.922,244.697 	"/>
	<polygon fill="#DEDFE0" points="904.954,209.186 904.954,244.697 938.922,244.697 	"/>
	<rect x="809.229" y="269.298" fill="#B0DAB9" width="106.02" height="7.205"/>
	<rect x="809.229" y="305.324" fill="#B0DAB9" width="106.02" height="7.205"/>
	<rect x="809.229" y="341.35" fill="#B0DAB9" width="106.02" height="7.205"/>
	<rect x="809.229" y="377.376" fill="#B0DAB9" width="106.02" height="7.205"/>
	<polygon fill="#FFFFFF" points="692.076,755.604 603.548,797.016 603.548,574.546 692.076,533.134 	"/>
	<polygon fill="#FFFFFF" points="692.076,755.604 603.548,797.016 603.548,574.546 692.076,533.134 	"/>
	<polygon fill="#EBECEC" points="691.899,755.604 782.198,797.016 782.198,574.546 691.899,533.134 	"/>
	<polygon fill="#FFFFFF" points="870.903,755.604 782.375,797.016 782.375,574.546 870.903,533.134 	"/>
	<polygon fill="#EBECEC" points="870.726,755.604 961.025,797.016 961.025,574.546 870.726,533.134 	"/>
	<path fill="#E74B42" d="M914.379,632.457c0,22.366-43.344,75.874-43.344,75.874s-43.344-53.508-43.344-75.874
		s19.406-40.497,43.344-40.497C894.973,591.96,914.379,610.091,914.379,632.457z"/>
	
		<ellipse fill="#FFFFFF" stroke="#B0DAB9" stroke-width="6" stroke-miterlimit="10" cx="871.035" cy="631.885" rx="18.763" ry="17.53"/>
	<circle fill="#B0DAB9" stroke="#FFFFFF" stroke-width="6" stroke-miterlimit="10" cx="401.955" cy="660.952" r="18.763"/>
	<circle fill="#B0DAB9" stroke="#FFFFFF" stroke-width="6" stroke-miterlimit="10" cx="312.45" cy="752.482" r="18.763"/>
	<circle fill="#B0DAB9" stroke="#FFFFFF" stroke-width="6" stroke-miterlimit="10" cx="198.377" cy="562.817" r="18.763"/>
	<circle fill="#B0DAB9" stroke="#FFFFFF" stroke-width="6" stroke-miterlimit="10" cx="96.672" cy="696.132" r="18.763"/>
	<circle fill="#DFF2FD" stroke="#B0DAB9" stroke-width="6" stroke-miterlimit="10" cx="1094.644" cy="665.075" r="57.825"/>
	<g>
		<g>
			<path fill="#FFFFFF" d="M1075.214,686.574c-13.757-9.935-12.01-26.024-3.001-38.623c1.88-2.629-2.46-5.122-4.317-2.524
				c-10.784,15.083-11.099,33.986,4.795,45.464C1075.31,692.783,1077.801,688.443,1075.214,686.574L1075.214,686.574z"/>
		</g>
	</g>
	<g>
		<g>
			<path fill="#ABDCE3" d="M495.413,793.289c14.827,0.055,32.526,2.777,44.871-7.417c12.152-10.036,10.96-32.054,0.362-42.59
				c-10.108-10.049-25.538-11.414-37.578-18.116c-6.295-3.504-9.357-8.531-9.257-15.736c0.131-9.424,3.699-18.464,12.147-23.225
				c4.692-2.645,10.258-3.41,15.568-3.417c3.224-0.005,3.225-5.005,0-5c-12.025,0.017-23.663,4.622-29.262,15.897
				c-3.514,7.075-5.011,17.215-2.129,24.745c2.185,5.71,7.194,9.46,12.467,12.149c12.102,6.172,28.851,7.658,37.278,19.44
				c5.163,7.218,5.065,18.349,1.515,26.196c-3.556,7.86-11.985,10.83-19.965,11.844c-8.621,1.096-17.363,0.264-26.017,0.231
				C492.188,788.277,492.189,793.277,495.413,793.289L495.413,793.289z"/>
		</g>
	</g>
	<g>
		<g>
			<path fill="#ABDCE3" d="M548.601,566.944c-15.33-0.051-33.308-2.765-46.908,6.056c-13.142,8.524-15.284,30.036-6.232,42.2
				c8.42,11.315,24.135,14.052,36.687,18.306c5.783,1.96,12.369,4.45,16.044,9.626c4.654,6.555,2.519,17.102-1.151,23.571
				c-4.86,8.566-16.159,11.982-25.516,11.083c-3.21-0.308-3.18,4.695,0,5c9.293,0.892,19.543-2.211,26.196-8.807
				c9.808-9.723,11.627-29.299,0.122-38.278c-10.91-8.516-26.067-9.428-38.241-15.511c-6.441-3.219-11.57-8.039-13.583-15.102
				c-2.454-8.609-0.607-19.558,5.892-25.923c11.291-11.059,32.485-7.269,46.689-7.221
				C551.826,571.955,551.825,566.955,548.601,566.944L548.601,566.944z"/>
		</g>
	</g>
	<path fill="#E0B835" d="M1286.37,421.803c0,62.977-36.458,69.889-81.432,69.889s-81.432-6.912-81.432-69.889
		c0-81.222,56.017-116.482,81.432-116.482C1231.391,305.321,1286.37,338.902,1286.37,421.803z"/>
	<path fill="#E0B835" d="M1206.492,315.395c11.613,0,27.868-24.244,19.739-35.259c-8.129-11.016-18.965,8.822-23.61-2.193
		s-20.496-2.229-22.079,3.872C1177.759,292.541,1191.395,315.395,1206.492,315.395z"/>
	<g>
		<g>
			<path fill="#E74B42" d="M1184.814,311.928c8.534,12.033,34.866,13.606,41.256-1.511c1.24-2.933-3.066-5.485-4.317-2.524
				c-4.784,11.317-26.001,10.846-32.621,1.511C1187.283,306.798,1182.944,309.291,1184.814,311.928L1184.814,311.928z"/>
		</g>
	</g>
	<g>
		<g>
			<path fill="#E74B42" d="M1229.288,390.971c-8.921-8.97-26.908-11.657-38.293-6.319c-5.444,2.552-8.396,6.95-8.259,12.983
				c0.165,7.322,4.224,12.286,10.661,15.275c8.645,4.015,18.649,5.562,26.095,11.871c6.442,5.459,8.478,15.478,0.078,20.036
				c-7.069,3.836-19.179,1.658-25.598-2.714c-1.845-1.257-3.234-3.101-4.201-5.085c-0.237-0.486-0.724-2.801-0.605-1.759
				c-0.361-3.165-5.365-3.201-5,0c1.092,9.572,11.365,14.57,19.863,15.658c8.01,1.026,17.371,0.922,23.023-5.739
				c4.675-5.51,3.72-13.205,0.2-19.001c-4.917-8.095-14.731-11.48-23.155-14.527c-8.316-3.008-16.16-5.076-16.391-15.293
				c-0.172-7.63,10.279-9.042,15.865-9.172c7.582-0.177,16.666,1.776,22.181,7.321
				C1228.028,396.795,1231.563,393.259,1229.288,390.971L1229.288,390.971z"/>
		</g>
	</g>
	<g>
		<g>
			<path fill="#E74B42" d="M1203.999,376.455c0,27.224,0,54.448,0,81.672c0,3.224,5,3.224,5,0c0-27.224,0-54.448,0-81.672
				C1208.999,373.23,1203.999,373.23,1203.999,376.455L1203.999,376.455z"/>
		</g>
	</g>
	<polygon fill="#FFFFFF" points="80.257,236.181 71.072,429.904 264.516,429.904 256.445,236.181 	"/>
	<ellipse fill="#EBECEC" cx="127.519" cy="263.653" rx="8.35" ry="8.768"/>
	<ellipse fill="#EBECEC" cx="211.521" cy="263.653" rx="8.35" ry="8.768"/>
	<g>
		<g>
			<path fill="#E74B42" d="M124.774,264.067c5.584,19.87,25.017,31.134,44.808,31.958c20.901,0.871,39.53-11.738,44.182-32.459
				c0.705-3.141-4.115-4.475-4.821-1.329c-4.245,18.91-20.541,29.226-39.361,28.789c-17.517-0.408-35.086-10.848-39.987-28.288
				C128.724,259.639,123.9,260.957,124.774,264.067L124.774,264.067z"/>
		</g>
	</g>
	<g>
		<g>
			<path fill="#ABDCE3" d="M1003.935,783.023c19.241,0,38.483,0,57.724,0c3.224,0,3.224-5,0-5c-19.241,0-38.483,0-57.724,0
				C1000.71,778.023,1000.71,783.023,1003.935,783.023L1003.935,783.023z"/>
		</g>
	</g>
	<g>
		<g>
			<path fill="#ABDCE3" d="M286.507,529.45c39.17,0,78.34,0,117.51,0c3.224,0,3.224-5,0-5c-39.17,0-78.34,0-117.51,0
				C283.282,524.45,283.282,529.45,286.507,529.45L286.507,529.45z"/>
		</g>
	</g>
	<g>
		<g>
			<path fill="#ABDCE3" d="M302.999,570.681c13.057,0,26.113,0,39.17,0c3.224,0,3.224-5,0-5c-13.057,0-26.113,0-39.17,0
				C299.775,565.681,299.775,570.681,302.999,570.681L302.999,570.681z"/>
		</g>
	</g>
	<g>
		<g>
			<path fill="#ABDCE3" d="M381.339,576.866c19.929,0,39.857,0,59.786,0c3.224,0,3.224-5,0-5c-19.929,0-39.857,0-59.786,0
				C378.115,571.866,378.115,576.866,381.339,576.866L381.339,576.866z"/>
		</g>
	</g>
	<g>
		<g>
			<path fill="#ABDCE3" d="M313.307,609.851c8.933,0,17.867,0,26.8,0c3.224,0,3.224-5,0-5c-8.934,0-17.867,0-26.8,0
				C310.083,604.851,310.083,609.851,313.307,609.851L313.307,609.851z"/>
		</g>
	</g>
	<g>
		<g>
			<path fill="#ABDCE3" d="M453.494,523.265c25.426,0,50.852,0,76.278,0c3.224,0,3.224-5,0-5c-25.426,0-50.852,0-76.278,0
				C450.27,518.265,450.27,523.265,453.494,523.265L453.494,523.265z"/>
		</g>
	</g>
	<g>
		<g>
			<path fill="#ABDCE3" d="M72.103,543.881c16.493,0,32.985,0,49.478,0c3.224,0,3.224-5,0-5c-16.493,0-32.985,0-49.478,0
				C68.878,538.881,68.878,543.881,72.103,543.881L72.103,543.881z"/>
		</g>
	</g>
	<g>
		<g>
			<path fill="#ABDCE3" d="M82.411,583.051c5.498,0,10.995,0,16.493,0c3.224,0,3.224-5,0-5c-5.498,0-10.995,0-16.493,0
				C79.186,578.051,79.186,583.051,82.411,583.051L82.411,583.051z"/>
		</g>
	</g>
	<g>
		<g>
			<path fill="#ABDCE3" d="M74.164,793.331c18.554,0,37.108,0,55.663,0c3.224,0,3.224-5,0-5c-18.554,0-37.108,0-55.663,0
				C70.94,788.331,70.94,793.331,74.164,793.331L74.164,793.331z"/>
		</g>
	</g>
	<g>
		<g>
			<path fill="#ABDCE3" d="M123.642,750.038c12.445-0.12,25.47-3.209,37.764-0.203c13.236,3.237,10.692,24.498,14.912,34.389
				c5.586,13.092,17.694,16.16,30.812,16.968c14.804,0.911,29.543-1.585,44.33-1.677c3.223-0.02,3.225-5.02,0-5
				c-14.348,0.089-28.592,2.24-42.962,1.742c-6.804-0.236-13.939-1.11-20.001-4.406c-6.813-3.704-8.958-12.518-10.225-19.514
				c-2.036-11.247-3.513-24.383-16.527-27.566c-12.367-3.024-25.594,0.146-38.102,0.267
				C120.42,745.069,120.417,750.069,123.642,750.038L123.642,750.038z"/>
		</g>
	</g>
	<g>
		<g>
			<path fill="#ABDCE3" d="M216.413,766.531c13.057,0,26.113,0,39.17,0c3.224,0,3.224-5,0-5c-13.057,0-26.113,0-39.17,0
				C213.189,761.531,213.189,766.531,216.413,766.531L216.413,766.531z"/>
		</g>
	</g>
	<g>
		<g>
			<path fill="#ABDCE3" d="M156.627,714.991c26.113,0,52.227,0,78.34,0c3.224,0,3.224-5,0-5c-26.113,0-52.227,0-78.34,0
				C153.403,709.991,153.403,714.991,156.627,714.991L156.627,714.991z"/>
		</g>
	</g>
	<g>
		<g>
			<path fill="#ABDCE3" d="M175.182,682.006c7.559,0,15.118,0,22.677,0c3.224,0,3.224-5,0-5c-7.559,0-15.118,0-22.677,0
				C171.957,677.006,171.957,682.006,175.182,682.006L175.182,682.006z"/>
		</g>
	</g>
	<g>
		<g>
			<path fill="#ABDCE3" d="M377.216,789.208c20.616,0,41.232,0,61.847,0c3.224,0,3.224-5,0-5c-20.616,0-41.232,0-61.847,0
				C373.992,784.208,373.992,789.208,377.216,789.208L377.216,789.208z"/>
		</g>
	</g>
	<g>
		<g>
			<path fill="#ABDCE3" d="M404.016,737.669c7.559,0,15.118,0,22.677,0c3.224,0,3.224-5,0-5c-7.559,0-15.118,0-22.677,0
				C400.792,732.669,400.792,737.669,404.016,737.669L404.016,737.669z"/>
		</g>
	</g>
	<g>
		<g>
			<path fill="#ABDCE3" d="M712.814,225.96c0,9.621,0,19.241,0,28.862c0,3.224,5,3.224,5,0c0-9.621,0-19.241,0-28.862
				C717.814,222.735,712.814,222.735,712.814,225.96L712.814,225.96z"/>
		</g>
	</g>
	<g>
		<g>
			<path fill="#ABDCE3" d="M733.868,174.859c15.805,0,31.611,0,47.416,0c3.224,0,3.224-5,0-5c-15.805,0-31.611,0-47.416,0
				C730.644,169.859,730.644,174.859,733.868,174.859L733.868,174.859z"/>
		</g>
	</g>
	<g>
		<g>
			<path fill="#ABDCE3" d="M745.799,246.575c0,24.739,0,49.478,0,74.217c0,3.224,5,3.224,5,0c0-24.739,0-49.478,0-74.217
				C750.799,243.351,745.799,243.351,745.799,246.575L745.799,246.575z"/>
		</g>
	</g>
	<g>
		<g>
			<path fill="#ABDCE3" d="M710.753,314.607c0.001,14.705,0.159,29.364,2.151,43.958c0.434,3.183,5.251,1.822,4.821-1.329
				c-1.928-14.131-1.971-28.394-1.972-42.628C715.752,311.383,710.752,311.383,710.753,314.607L710.753,314.607z"/>
		</g>
	</g>
	<g>
		<g>
			<path fill="#ABDCE3" d="M737.553,378.516c0,14.431,0,28.862,0,43.293c0,3.224,5,3.224,5,0c0-14.431,0-28.862,0-43.293
				C742.553,375.292,737.553,375.292,737.553,378.516L737.553,378.516z"/>
		</g>
	</g>
	<g>
		<g>
			<path fill="#ABDCE3" d="M706.629,421.809c-0.101,22.342-6.07,51.972,15.486,66.784c8.609,5.916,21.533,4.649,31.375,4.189
				c12.017-0.561,24.007-2.417,36.041-2.503c3.223-0.023,3.225-5.023,0-5c-10.256,0.074-20.509,1.487-30.732,2.191
				c-9.986,0.688-21.493,1.927-31.12-1.496c-11.322-4.025-15.39-17.973-16.43-28.573c-1.16-11.827,0.328-23.75,0.381-35.593
				C711.644,418.584,706.644,418.586,706.629,421.809L706.629,421.809z"/>
		</g>
	</g>
	<g>
		<g>
			<path fill="#ABDCE3" d="M523.588,469.664c12.872-1.714,25.042-0.135,35.02,8.687c8.227,7.274,13.997,16.953,21.518,24.905
				c8.98,9.495,19.009,14.595,32.052,15.762c15.834,1.416,31.655-1.827,47.474-1.937c3.223-0.023,3.225-5.023,0-5
				c-15.387,0.108-30.637,2.877-46.052,2.039c-7.432-0.404-14.328-2.051-20.529-6.235c-5.184-3.497-9.558-8.101-13.594-12.836
				c-6.693-7.852-12.373-16.819-20.758-23.049c-10.305-7.656-22.678-8.994-35.131-7.336
				C520.44,465.083,520.399,470.089,523.588,469.664L523.588,469.664z"/>
		</g>
	</g>
	<g>
		<g>
			<path fill="#ABDCE3" d="M618.42,479.972c13.744,0,27.488,0,41.232,0c3.224,0,3.224-5,0-5c-13.744,0-27.488,0-41.232,0
				C615.196,474.972,615.196,479.972,618.42,479.972L618.42,479.972z"/>
		</g>
	</g>
	<g>
		<g>
			<path fill="#ABDCE3" d="M455.556,474.972c-29.549,0-59.099,0-88.648,0c-3.224,0-3.224,5,0,5c29.549,0,59.098,0,88.648,0
				C458.78,479.972,458.78,474.972,455.556,474.972L455.556,474.972z"/>
		</g>
	</g>
	<g>
		<g>
			<path fill="#ABDCE3" d="M292.691,479.095c-42.606,0-85.212,0-127.818,0c-3.224,0-3.224,5,0,5c42.606,0,85.212,0,127.818,0
				C295.916,484.095,295.916,479.095,292.691,479.095L292.691,479.095z"/>
		</g>
	</g>
	<g>
		<g>
			<path fill="#ABDCE3" d="M94.78,479.095c-8.246,0-16.493,0-24.739,0c-3.224,0-3.224,5,0,5c8.246,0,16.493,0,24.739,0
				C98.004,484.095,98.004,479.095,94.78,479.095L94.78,479.095z"/>
		</g>
	</g>
	<g>
		<g>
			<path fill="#ABDCE3" d="M854.104,488.129c12.734-1.839,25.475-3.989,38.387-3.692c12.559,0.289,21.63,5.643,29.4,15.259
				c5.725,7.085,10.042,15.579,17.462,21.145c6.437,4.829,15.273,7.537,23.275,7.962c30.417,1.616,25.863-45.701,25.813-64.649
				c-0.031-11.897,0.625-23.12,5.696-34.149c2.294-4.988,6.257-10.942,12.266-11.461c5.693-0.491,10.35,4.523,13.26,8.77
				c4.371,6.379,6.515,14.098,7.78,21.637c1.884,11.229,1.835,23.013,2.705,34.363c1.846,24.102,3.727,48.325,2.21,72.499
				c-0.202,3.221,4.799,3.202,5,0c1.954-31.136-1.609-62.305-3.755-93.336c-1.092-15.799-3.398-41.03-21.094-47.86
				c-16.955-6.544-25.374,16.502-27.845,28.817c-2.643,13.172-0.969,27.283-1.242,40.624c-0.224,10.946-0.515,23.776-6.794,33.216
				c-7.088,10.656-22.996,6.328-32.111,1.073c-6.947-4.005-11.312-11.632-15.874-17.947c-4.799-6.644-10.22-12.615-17.43-16.674
				c-8.403-4.731-18.682-4.615-28.035-4.138c-10.201,0.52-20.31,2.262-30.404,3.72C849.594,483.767,850.952,488.584,854.104,488.129
				L854.104,488.129z"/>
		</g>
	</g>
	<g>
		<g>
			<path fill="#ABDCE3" d="M1094.644,539.757c20.59,0.012,41.615-0.071,61.917,3.803c12.772,2.437,26.115,7.109,34.089,17.996
				c8.817,12.038,9.425,28.341,8.937,42.659c-0.257,7.536-1.537,14.922-0.644,22.449c0.833,7.028,2.696,13.921,5.799,20.292
				c2.856,5.864,7.397,11.052,13.741,13.085c7.079,2.269,15.931-1.305,21.261-5.973c5.415-4.742,6.048-13.066,6.354-19.768
				c0.441-9.638-0.675-19.32-1.347-28.922c-0.644-9.2,0.007-17.89,1.956-26.945c1.849-8.592,5.048-17.842,11.546-24.059
				c15.318-14.656,23.33,18.242,24.559,27.426c5.61,41.931,2.985,84.419,2.945,126.566c-0.003,3.224,4.997,3.224,5,0
				c0.031-32.047,1.426-64.098-0.266-96.127c-0.745-14.106-1.498-28.765-4.889-42.528c-1.821-7.393-4.983-15.555-11.097-20.464
				c-11.643-9.348-23.062,3.167-27.849,13.381c-8.125,17.336-7.373,35.65-6.063,54.149c0.643,9.082,1.494,18.809-0.882,27.711
				c-2.005,7.513-11.698,12.443-19.155,10.925c-13.177-2.683-16.938-24.082-17.043-35.039c-0.083-8.658,1.354-17.28,1.132-25.987
				c-0.19-7.458-1.103-14.985-3.278-22.136c-3.608-11.865-11.556-21.173-22.575-26.784c-10.39-5.291-22.201-7.301-33.664-8.653
				c-16.722-1.973-33.669-2.048-50.484-2.058C1091.42,534.756,1091.42,539.756,1094.644,539.757L1094.644,539.757z"/>
		</g>
	</g>
	<g>
		<g>
			<path fill="#ABDCE3" d="M1273.773,761.424c0,19.241,0,38.483,0,57.724c0,3.224,5,3.224,5,0c0-19.241,0-38.483,0-57.724
				C1278.773,758.2,1273.773,758.2,1273.773,761.424L1273.773,761.424z"/>
		</g>
	</g>
	<g>
		<g>
			<path fill="#ABDCE3" d="M1091.783,473.252c-18.47-8.384-30.416-33.173-19.639-51.931c3.596-6.259,10.264-10.461,15.363-15.385
				c6.722-6.492,11.203-14.352,14.179-23.161c4.873-14.427,2.953-30.584-8.307-41.432c-11.709-11.281-29.455-12.863-44.753-10.592
				c-3.18,0.472-1.824,5.289,1.329,4.821c15.695-2.33,34.286,0.259,44.09,14.141c10.469,14.824,4.018,36.496-6.779,49.199
				c-4.638,5.456-10.613,9.511-15.507,14.704c-4.903,5.202-7.213,11.567-8.145,18.558c-2.471,18.542,8.732,37.718,25.645,45.396
				C1092.171,478.891,1094.715,474.583,1091.783,473.252L1091.783,473.252z"/>
		</g>
	</g>
	<g>
		<g>
			<path fill="#ABDCE3" d="M1045.166,288.245c28.252,0.179,86.186,19.673,92.67-23.183c5.227-34.545-46.028-29.835-66.813-28.466
				c-7.921,0.522-15.853,1.265-23.796,1.295c-3.224,0.012-3.225,5.012,0,5c15.321-0.058,30.564-2.16,45.899-2.182
				c12.04-0.017,31.582-0.077,38.37,12.172c3.604,6.504,1.328,15.889-1.967,21.996c-4.294,7.96-13.294,11.134-21.757,12.233
				c-19.457,2.526-39.156-2.812-58.549-3.768c-1.352-0.067-2.705-0.088-4.058-0.096
				C1041.941,283.225,1041.943,288.225,1045.166,288.245L1045.166,288.245z"/>
		</g>
	</g>
	<g>
		<g>
			<path fill="#ABDCE3" d="M1043.105,193.413c11.682,0,23.365,0,35.047,0c3.224,0,3.224-5,0-5c-11.682,0-23.365,0-35.047,0
				C1039.88,188.413,1039.88,193.413,1043.105,193.413L1043.105,193.413z"/>
		</g>
	</g>
	<g>
		<g>
			<path fill="#ABDCE3" d="M1139.999,191.351c7.764-0.717,15.497,0.343,20.045,7.314c3.654,5.6,4.58,12.828,5.71,19.275
				c2.376,13.552,5.836,27.125,21.923,28.61c8.821,0.814,15.476-3.463,20.652-10.285c2.743-3.615,4.766-7.777,6.716-11.852
				c2.109-4.408,4.656-8.942,6.143-13.593c2.897-9.057,8.924-20.119,18.77-22.891c10.713-3.017,17.541,10.73,20.228,18.692
				c4.623,13.695,4.873,29.073,5.479,43.373c0.621,14.653,0.438,29.38,1.712,43.998c0.278,3.186,5.28,3.214,5,0
				c-1.88-21.568-1.011-43.283-3.07-64.854c-1.468-15.376-5.034-43.123-24.186-46.344c-19.618-3.299-27.354,23.88-33.392,36.956
				c-3.706,8.025-8.1,18.323-17.198,21.331c-7.724,2.554-16.347-1.243-19.852-8.294c-4.778-9.611-3.988-21.279-7.729-31.3
				c-4.444-11.903-14.76-16.262-26.951-15.136C1136.816,186.645,1136.787,191.648,1139.999,191.351L1139.999,191.351z"/>
		</g>
	</g>
</g>
</svg>
